#!OML:ASF E:\motion texture\Top Level 1\Subject 1\Session 1\male.ASF
:FULLY-SPECIFIED
:DEGREES
381
root -22.4848 17.8829 4.30138 104.758 -79.4662 -96.8492
lowerback -0.223082 1.18608 7.67295
upperback -4.58562 1.72426 3.90423
thorax -4.54089 0.560721 -0.288443
lowerneck -15.6666 -6.30175 -6.54924
upperneck 17.0774 -8.11449 4.66333
head 8.34962 -3.84464 1.64695
rclavicle 6.6655e-015 3.83654e-014
rhumerus -14.2604 -76.1861 -3.40582
rradius 22.0835
rwrist 2.94023
rhand -7.92884 -24.7643
rfingers 7.12502
rthumb 17.9773 -53.9535
lclavicle 6.6655e-015 3.83654e-014
lhumerus -28.3949 54.8691 2.84552
lradius 25.0246
lwrist 16.8966
lhand -12.7894 18.7331
lfingers 7.12502
lthumb 13.2962 48.289
rfemur 2.66856 3.55542 33.8641
rtibia 16.7704
rfoot -15.254 -6.78455
rtoes 0.547062
lfemur -29.1485 -1.70961 -2.66646
ltibia 11.2696
lfoot -5.69276 8.92457
ltoes -17.2551
382
root -22.6481 17.867 4.32354 105.128 -79.4246 -97.2702
lowerback -0.178593 1.2127 7.71216
upperback -4.58701 1.76559 3.90345
thorax -4.56448 0.57884 -0.312954
lowerneck -15.6046 -6.30435 -6.55292
upperneck 16.8721 -8.08085 4.54058
head 8.26241 -3.84147 1.6146
rclavicle -2.88238e-015 2.72335e-014
rhumerus -14.6077 -76.2766 -2.72803
rradius 22.09
rwrist 2.94225
rhand -7.7946 -24.8079
rfingers 7.12502
rthumb 18.1065 -53.9851
lclavicle -2.88238e-015 2.72335e-014
lhumerus -28.6422 54.8032 2.27142
lradius 25.1402
lwrist 17.1681
lhand -12.8938 18.8407
lfingers 7.12502
lthumb 13.1955 48.4031
rfemur 2.86372 3.6848 33.8344
rtibia 17.6015
rfoot -15.4188 -6.79057
rtoes -0.92469
lfemur -29.2659 -1.37531 -2.97323
ltibia 12.2287
lfoot -5.07077 8.85231
ltoes -16.9312
383
root -22.8128 17.8522 4.34642 105.485 -79.3961 -97.7057
lowerback -0.119177 1.23272 7.73321
upperback -4.57933 1.79928 3.90222
thorax -4.58776 0.594294 -0.328042
lowerneck -15.5521 -6.31253 -6.56504
upperneck 16.6832 -8.05609 4.42761
head 8.18398 -3.84175 1.58541
rclavicle -6.34869e-015 1.74931e-014
rhumerus -14.941 -76.4082 -2.07746
rradius 22.088
rwrist 2.98224
rhand -7.66611 -24.8345
rfingers 7.12502
rthumb 18.2301 -54.0003
lclavicle -6.34869e-015 1.74931e-014
lhumerus -28.8771 54.6911 1.73488
lradius 25.2627
lwrist 17.4303
lhand -13.048 18.9705
lfingers 7.12502
lthumb 13.0469 48.5424
rfemur 3.02763 3.82242 33.7916
rtibia 18.5437
rfoot -15.5386 -6.80649
rtoes -2.48896
lfemur -29.3683 -1.07562 -3.2998
ltibia 13.3516
lfoot -4.24702 8.81209
ltoes -16.5694
384
root -22.9785 17.8386 4.36984 105.814 -79.3996 -98.1345
lowerback -0.0507713 1.24449 7.71716
upperback -4.558 1.8219 3.8946
thorax -4.60293 0.606555 -0.329269
lowerneck -15.5404 -6.32563 -6.59605
upperneck 16.5322 -8.04046 4.34833
head 8.12838 -3.84337 1.56784
rclavicle -7.57245e-015 5.42682e-014
rhumerus -15.2673 -76.4911 -1.45992
rradius 22.0915
rwrist 2.96211
rhand -7.53337 -24.8376
rfingers 7.12502
rthumb 18.3578 -53.9914
lclavicle -7.57245e-015 5.42682e-014
lhumerus -29.1125 54.6177 1.21048
lradius 25.3796
lwrist 17.6548
lhand -13.1888 19.0627
lfingers 7.12502
lthumb 12.9112 48.6433
rfemur 3.14789 3.96079 33.7149
rtibia 19.6013
rfoot -15.5953 -6.82355
rtoes -4.07742
lfemur -29.456 -0.846871 -3.64736
ltibia 14.5783
lfoot -3.34061 8.79135
ltoes -16.1121
385
root -23.1452 17.827 4.3937 106.149 -79.4597 -98.5962
lowerback 0.0367486 1.24727 7.64049
upperback -4.52937 1.83352 3.87091
thorax -4.62266 0.616069 -0.313917
lowerneck -15.5611 -6.34442 -6.6214
upperneck 16.4274 -8.03569 4.27284
head 8.09455 -3.84886 1.54795
rclavicle -6.75868e-015 -7.4743e-014
rhumerus -15.6258 -76.5669 -0.841929
rradius 22.0988
rwrist 2.94266
rhand -7.38041 -24.8098
rfingers 7.12502
rthumb 18.5049 -53.9496
lclavicle -6.75868e-015 -7.4743e-014
lhumerus -29.332 54.4986 0.729345
lradius 25.5063
lwrist 17.8754
lhand -13.3407 19.1421
lfingers 7.12502
lthumb 12.7647 48.7319
rfemur 3.22792 4.09029 33.5723
rtibia 20.773
rfoot -15.5588 -6.83371
rtoes -5.70427
lfemur -29.5064 -0.721398 -4.02862
ltibia 15.8353
lfoot -2.48626 8.76487
ltoes -15.5053
386
root -23.3129 17.818 4.41791 106.492 -79.5924 -99.0888
lowerback 0.136624 1.24301 7.48968
upperback -4.49612 1.83557 3.82324
thorax -4.64587 0.62402 -0.282647
lowerneck -15.5718 -6.37572 -6.66134
upperneck 16.3562 -8.0538 4.22599
head 8.07343 -3.86368 1.53689
rclavicle 8.63471e-016 5.78463e-014
rhumerus -16.0658 -76.5804 -0.184763
rradius 22.1217
rwrist 2.8705
rhand -7.21747 -24.7587
rfingers 7.12502
rthumb 18.6617 -53.8836
lclavicle 8.63471e-016 5.78463e-014
lhumerus -29.5198 54.3225 0.313595
lradius 25.6483
lwrist 18.1064
lhand -13.4679 19.1831
lfingers 7.12502
lthumb 12.6421 48.7805
rfemur 3.25449 4.19108 33.3382
rtibia 22.0655
rfoot -15.4228 -6.81474
rtoes -7.22324
lfemur -29.512 -0.702486 -4.45896
ltibia 17.0612
lfoot -1.78497 8.67421
ltoes -14.747
387
root -23.4812 17.8123 4.44244 106.812 -79.8054 -99.5891
lowerback 0.255341 1.22634 7.25909
upperback -4.45101 1.82084 3.75108
thorax -4.66916 0.627368 -0.232605
lowerneck -15.6202 -6.41504 -6.69548
upperneck 16.3306 -8.08614 4.18808
head 8.07506 -3.88343 1.52456
rclavicle 1.05729e-014 8.34896e-015
rhumerus -16.5551 -76.563 0.473963
rradius 22.1582
rwrist 2.78452
rhand -7.02446 -24.7122
rfingers 7.12502
rthumb 18.8473 -53.8191
lclavicle 1.05729e-014 8.34896e-015
lhumerus -29.6944 54.0933 -0.0533031
lradius 25.805
lwrist 18.3559
lhand -13.5236 19.2049
lfingers 7.12502
lthumb 12.5884 48.8056
rfemur 3.22988 4.2352 32.9968
rtibia 23.4717
rfoot -15.1524 -6.75136
rtoes -8.61405
lfemur -29.4451 -0.782468 -4.95051
ltibia 18.1907
lfoot -1.28459 8.45553
ltoes -13.7852
388
root -23.6506 17.8103 4.46706 107.139 -80.0857 -100.118
lowerback 0.381482 1.20279 6.96354
upperback -4.40176 1.7955 3.65582
thorax -4.69349 0.628167 -0.170319
lowerneck -15.6735 -6.46124 -6.71948
upperneck 16.3345 -8.13276 4.15417
head 8.08797 -3.909 1.50966
rclavicle 1.47846e-014 4.13472e-014
rhumerus -17.1513 -76.5519 1.19983
rradius 22.1969
rwrist 2.73004
rhand -6.83301 -24.6615
rfingers 7.12502
rthumb 19.0314 -53.7504
lclavicle 1.47846e-014 4.13472e-014
lhumerus -29.8545 53.8289 -0.37595
lradius 25.9663
lwrist 18.5959
lhand -13.59 19.2098
lfingers 7.12502
lthumb 12.5245 48.8144
rfemur 3.12949 4.19256 32.5489
rtibia 25.0167
rfoot -14.731 -6.63078
rtoes -9.83951
lfemur -29.2926 -0.918213 -5.50046
ltibia 19.1883
lfoot -1.00414 8.10032
ltoes -12.6077
389
root -23.821 17.8121 4.49197 107.426 -80.4068 -100.624
lowerback 0.501987 1.17267 6.63349
upperback -4.34113 1.75854 3.5485
thorax -4.70351 0.625165 -0.100652
lowerneck -15.7327 -6.51036 -6.75066
upperneck 16.3572 -8.18615 4.13875
head 8.10969 -3.9364 1.50074
rclavicle -3.17434e-015 6.22196e-014
rhumerus -17.8495 -76.5897 2.003
rradius 22.2242
rwrist 2.75141
rhand -6.67025 -24.6217
rfingers 7.12502
rthumb 19.1879 -53.6951
lclavicle -3.17434e-015 6.22196e-014
lhumerus -30.0036 53.5361 -0.655178
lradius 26.1233
lwrist 18.8396
lhand -13.5631 19.2024
lfingers 7.12502
lthumb 12.5504 48.8055
rfemur 2.93868 4.04395 32.0173
rtibia 26.7061
rfoot -14.1333 -6.44834
rtoes -10.8586
lfemur -29.0452 -1.06858 -6.09267
ltibia 20.0576
lfoot -0.899327 7.62608
ltoes -11.239
390
root -23.9922 17.8173 4.51737 107.667 -80.7263 -101.099
lowerback 0.616468 1.13987 6.31513
upperback -4.26781 1.71611 3.44066
thorax -4.69668 0.61947 -0.0372745
lowerneck -15.8075 -6.5607 -6.7834
upperneck 16.3983 -8.24301 4.13466
head 8.14111 -3.9642 1.49466
rclavicle 1.93194e-015 2.08724e-014
rhumerus -18.6144 -76.6576 2.85191
rradius 22.2346
rwrist 2.82077
rhand -6.53546 -24.5896
rfingers 7.12502
rthumb 19.3176 -53.6501
lclavicle 1.93194e-015 2.08724e-014
lhumerus -30.1439 53.2669 -0.905848
lradius 26.256
lwrist 19.0487
lhand -13.5011 19.1863
lfingers 7.12502
lthumb 12.6101 48.7856
rfemur 2.64394 3.78776 31.4429
rtibia 28.5415
rfoot -13.3179 -6.20898
rtoes -11.6421
lfemur -28.6991 -1.19098 -6.68718
ltibia 20.8173
lfoot -0.906565 7.11271
ltoes -9.69569
391
root -24.1644 17.8253 4.54375 107.89 -81.0142 -101.561
lowerback 0.715526 1.10962 6.04167
upperback -4.18718 1.67552 3.34143
thorax -4.67259 0.613123 0.0107644
lowerneck -15.8862 -6.61079 -6.81149
upperneck 16.4571 -8.30054 4.12606
head 8.1788 -3.99245 1.48591
rclavicle 4.03781e-016 5.46658e-015
rhumerus -19.4952 -76.868 3.81944
rradius 22.2082
rwrist 3.05397
rhand -6.40948 -24.555
rfingers 7.12502
rthumb 19.4387 -53.6034
lclavicle 4.03781e-016 5.46658e-015
lhumerus -30.2894 53.0399 -1.1456
lradius 26.3576
lwrist 19.1936
lhand -13.4245 19.1672
lfingers 7.12502
lthumb 12.6839 48.762
rfemur 2.23197 3.43578 30.8555
rtibia 30.5164
rfoot -12.2535 -5.93389
rtoes -12.2077
lfemur -28.2557 -1.26303 -7.25835
ltibia 21.4837
lfoot -0.998597 6.65051
ltoes -8.18854
